<?xml version="1.0" encoding="UTF-8" standalone="no"?>
<svg
   xmlns:dc="http://purl.org/dc/elements/1.1/"
   xmlns:cc="http://creativecommons.org/ns#"
   xmlns:rdf="http://www.w3.org/1999/02/22-rdf-syntax-ns#"
   xmlns:svg="http://www.w3.org/2000/svg"
   xmlns="http://www.w3.org/2000/svg"
   version="1.1"
   width="14"
   height="14"
   viewBox="0 0 14 14"
   id="svg2">
  <metadata
     id="metadata8">
    <rdf:RDF>
      <cc:Work
         rdf:about="">
        <dc:format>image/svg+xml</dc:format>
        <dc:type
           rdf:resource="http://purl.org/dc/dcmitype/StillImage" />
        <dc:title></dc:title>
      </cc:Work>
    </rdf:RDF>
  </metadata>
  <defs
     id="defs6" />
  <rect
     width="14"
     height="14"
     x="0"
     y="0"
     id="canvas"
     style="visibility:hidden;fill:none;stroke:none" />
  <path
     d="m 12.490806,1.46875 c 0.167266,0.084188 0.229367,0.3762768 0,0.46875 l -1.875,0.75 c -0.306429,0.1235421 -0.493322,-0.3454524 -0.1875,-0.46875 l 1.875,-0.75 c 0.07646,-0.030824 0.131745,-0.028062 0.1875,0 z M 12.459556,3.25 c 0.329742,0 0.329742,0.5 0,0.5 h -2 c -0.330396,0 -0.329742,-0.5 0,-0.5 z m -1.84375,1.125 1.875,0.75 c 0.305822,0.1232976 0.118929,0.5922921 -0.1875,0.46875 l -1.875,-0.75 C 10.122484,4.7204524 10.309984,4.2517024 10.615806,4.375 Z m -6.0217495,0 -1.875,0.75 c -0.305822,0.1232976 -0.118929,0.5922921 0.1875,0.46875 l 1.875,-0.75 C 5.0873785,4.7204524 4.8998785,4.2517024 4.5940565,4.375 Z M 2.7503065,3.25 c -0.329742,0 -0.329742,0.5 0,0.5 h 2 c 0.330396,0 0.329742,-0.5 0,-0.5 z m -0.03125,-1.78125 c -0.167266,0.084188 -0.229367,0.3762768 0,0.46875 l 1.875,0.75 c 0.306429,0.1235421 0.493322,-0.3454524 0.1875,-0.46875 l -1.875,-0.75 c -0.07646,-0.030824 -0.131745,-0.028062 -0.1875,0 z M 6,14 V 11 H 7 V 8 L 6,7 H 7 V 5 C 6.75,5 6.5,4.75 6.5,4.5 V 3 C 6.5,2.75 6.75,2.5 7,2.5 H 8 C 8.25,2.5 8.5,2.75 8.5,3 V 4.5 C 8.5,4.75 8.25,5 8,5 V 7 H 9 L 8,8 v 3 h 1 v 3 z"
     id="beacon" />
</svg>
